<svg width="75" height="75" viewBox="0 0 75 75" fill="none" xmlns="http://www.w3.org/2000/svg">
<circle cx="37.5" cy="37.5" r="37.5" fill="url(#paint0_linear_8110_5269)"/>
<path d="M49.0384 43.4852H52.9999V47.3229H49.0384C48.008 47.3034 47.181 46.4512 47.181 45.404C47.181 44.3568 48.008 43.5047 49.0384 43.4852ZM49.0384 40.8833H52.9999V37.3578C53.0016 36.6814 52.7371 36.0325 52.2644 35.5545C51.7932 35.0748 51.1538 34.8064 50.4871 34.808H29.3588C28.6921 34.8064 28.0527 35.0747 27.5799 35.5528C27.1088 36.0325 26.8443 36.6814 26.8459 37.3578V43.5893C28.7434 43.5958 30.5655 44.3374 31.9405 45.6643C33.3156 46.9896 34.1377 48.7995 34.2386 50.7214C34.3412 52.6435 33.7146 54.5314 32.487 56H50.4872C51.1538 56.0016 51.7933 55.7333 52.2644 55.2536C52.7371 54.7755 53.0016 54.1267 53 53.4502V49.9247H49.0384C46.5961 49.8987 44.6298 47.8823 44.6298 45.4042C44.6298 42.9261 46.5961 40.9091 49.0384 40.8833ZM40.4484 31.7249C40.1888 31.5574 39.8699 31.5151 39.5766 31.6078C39.2817 31.7005 39.0429 31.92 38.9227 32.2062H40.9227C40.8106 32.0046 40.6471 31.8387 40.4484 31.7249ZM41.7048 21.1877L39.8715 20.147C38.2753 19.4949 38.0798 21.147 37.2304 22.4626C37.9901 22.9 38.8891 23.0106 39.7288 22.7716C40.5702 22.5309 41.2801 21.9618 41.7048 21.1877ZM48.6665 31.9855C47.3123 31.2131 46.3155 29.9268 45.8973 28.4096C45.479 26.8908 45.6729 25.2663 46.4357 23.8937L43.9357 22.4627C42.3475 25.3182 38.7832 26.3362 35.9611 24.7393C34.6405 27.146 33.0252 30.0599 31.833 32.2068H36.2688C36.5316 30.3611 38.0909 28.9902 39.9291 28.9902C41.7672 28.9902 43.3265 30.3611 43.5893 32.2068H48.551C48.5991 32.1352 48.6408 32.062 48.6792 31.9856L48.6665 31.9855ZM50.4999 26.2094L48.6665 25.1687C47.7819 26.7753 48.3428 28.8048 49.9229 29.7088C50.4838 28.468 51.8893 27.1786 50.4999 26.2094ZM31.692 51.0829C31.6679 53.7823 29.5061 55.9564 26.846 55.9564C24.1859 55.9564 22.0238 53.7823 22 51.0829C22.024 48.3835 24.1859 46.2094 26.846 46.2094C29.5061 46.2094 31.6682 48.3835 31.692 51.0829ZM29.1919 49.3267C28.9547 49.0779 28.6294 48.9364 28.2881 48.9364C27.9467 48.9364 27.6214 49.0779 27.3842 49.3267L26.6278 50.0812C25.4467 48.429 23.2352 50.034 24.4996 51.5902L25.7176 52.8391C26.2224 53.3465 27.0333 53.3465 27.5381 52.8391L29.1919 51.161C29.4323 50.9187 29.5669 50.5886 29.5669 50.2438C29.5669 49.8991 29.4323 49.5689 29.1919 49.3267Z" fill="#EF8D80"/>
<defs>
<linearGradient id="paint0_linear_8110_5269" x1="16.9014" y1="-16.1392" x2="52.8507" y2="37.9522" gradientUnits="userSpaceOnUse">
<stop stop-color="#FFD0CA"/>
<stop offset="1" stop-color="#FFF9F3"/>
</linearGradient>
</defs>
</svg>
