<svg width="75" height="75" viewBox="0 0 75 75" fill="none" xmlns="http://www.w3.org/2000/svg">
<circle cx="37.5" cy="37.5" r="37.5" fill="url(#paint0_linear_8110_5271)"/>
<path d="M38.9347 37.607C38.9347 36.8493 38.3286 36.2432 37.5709 36.2432C36.8132 36.2432 36.207 36.8493 36.207 37.607C36.207 38.1374 36.5101 38.592 36.9647 38.8193L36.6238 40.2211C36.548 40.4863 36.7374 40.7136 37.0026 40.7136H38.177C38.4422 40.7136 38.6317 40.4863 38.5559 40.2211L38.2149 38.8193C38.6317 38.592 38.9347 38.1374 38.9347 37.607Z" fill="#EFB72F"/>
<path d="M37.5711 29.4619C36.3588 29.4619 35.3359 30.4469 35.3359 31.6971V33.8944H39.8063V31.6971C39.8063 30.4848 38.7835 29.4619 37.5711 29.4619Z" fill="#EFB72F"/>
<path d="M52.5351 23.2865L37.7601 20.0284C37.6464 19.9905 37.5328 19.9905 37.4191 20.0284L22.644 23.2865C22.2652 23.3623 22 23.7032 22 24.0821V32.2652C22 40.1073 25.7127 47.457 32.0395 52.0789L37.116 55.8295C37.4191 56.0568 37.7979 56.0568 38.101 55.8295L43.1776 52.0789C49.4665 47.457 53.1792 40.0695 53.1792 32.2652V24.0821C53.1792 23.7032 52.914 23.3623 52.5351 23.2865ZM43.9353 42.2668C43.9353 42.6835 43.5943 43.0624 43.1397 43.0624H32.0016C31.5848 43.0624 31.206 42.7214 31.206 42.2668V34.6898C31.206 34.2731 31.547 33.8942 32.0016 33.8942H33.1381V31.6969C33.1381 29.2344 35.146 27.2265 37.6085 27.2265C40.071 27.2265 42.041 29.2723 42.041 31.6969V33.8942H43.1776C43.5943 33.8942 43.9732 34.2352 43.9732 34.6898V42.2668H43.9353Z" fill="#EFB72F"/>
<defs>
<linearGradient id="paint0_linear_8110_5271" x1="-10.9896" y1="-43.75" x2="62.8166" y2="46.2039" gradientUnits="userSpaceOnUse">
<stop stop-color="#FFD05F"/>
<stop offset="1" stop-color="white"/>
</linearGradient>
</defs>
</svg>
