<svg width="75" height="75" viewBox="0 0 75 75" fill="none" xmlns="http://www.w3.org/2000/svg">
<circle cx="37.5" cy="37.5" r="37.5" fill="url(#paint0_linear_8110_5267)"/>
<path d="M36.3636 20H20.6545C20.2945 20 20 20.2945 20 20.6545V36.3636C20 36.7236 20.2945 37.0182 20.6545 37.0182H36.3636C36.7236 37.0182 37.0182 36.7236 37.0182 36.3636V20.6545C37.0182 20.2945 36.7236 20 36.3636 20ZM31.7818 29.1636H29.1636V31.7818C29.1636 32.1418 28.8691 32.4364 28.5091 32.4364C28.1491 32.4364 27.8545 32.1418 27.8545 31.7818V29.1636H25.2364C24.8764 29.1636 24.5818 28.8691 24.5818 28.5091C24.5818 28.1491 24.8764 27.8545 25.2364 27.8545H27.8545V25.2364C27.8545 24.8764 28.1491 24.5818 28.5091 24.5818C28.8691 24.5818 29.1636 24.8764 29.1636 25.2364V27.8545H31.7818C32.1418 27.8545 32.4364 28.1491 32.4364 28.5091C32.4364 28.8691 32.1418 29.1636 31.7818 29.1636Z" fill="#F4A261"/>
<path d="M55.3461 20H39.637C39.277 20 38.9824 20.2945 38.9824 20.6545V36.3636C38.9824 36.7236 39.277 37.0182 39.637 37.0182H55.3461C55.7061 37.0182 56.0006 36.7236 56.0006 36.3636V20.6545C56.0006 20.2945 55.7061 20 55.3461 20ZM50.7642 29.1636H44.2188C43.8588 29.1636 43.5642 28.8691 43.5642 28.5091C43.5642 28.1491 43.8588 27.8545 44.2188 27.8545H50.7642C51.1242 27.8545 51.4188 28.1491 51.4188 28.5091C51.4188 28.8691 51.1242 29.1636 50.7642 29.1636Z" fill="#F4A261"/>
<path d="M36.3636 38.9824H20.6545C20.2945 38.9824 20 39.277 20 39.637V55.3461C20 55.7061 20.2945 56.0006 20.6545 56.0006H36.3636C36.7236 56.0006 37.0182 55.7061 37.0182 55.3461V39.637C37.0182 39.277 36.7236 38.9824 36.3636 38.9824ZM28.5091 42.2551C29.5891 42.2551 30.4727 43.1388 30.4727 44.2188C30.4727 45.2988 29.5891 46.1824 28.5091 46.1824C27.4291 46.1824 26.5455 45.2988 26.5455 44.2188C26.5455 43.1388 27.4291 42.2551 28.5091 42.2551ZM28.5091 52.7279C27.4291 52.7279 26.5455 51.8442 26.5455 50.7642C26.5455 49.6842 27.4291 48.8006 28.5091 48.8006C29.5891 48.8006 30.4727 49.6842 30.4727 50.7642C30.4727 51.8442 29.5891 52.7279 28.5091 52.7279ZM31.7818 48.1461H25.2364C24.8764 48.1461 24.5818 47.8515 24.5818 47.4915C24.5818 47.1315 24.8764 46.837 25.2364 46.837H31.7818C32.1418 46.837 32.4364 47.1315 32.4364 47.4915C32.4364 47.8515 32.1418 48.1461 31.7818 48.1461Z" fill="#F4A261"/>
<path d="M28.5081 44.8735C28.8696 44.8735 29.1626 44.5805 29.1626 44.219C29.1626 43.8575 28.8696 43.5645 28.5081 43.5645C28.1466 43.5645 27.8535 43.8575 27.8535 44.219C27.8535 44.5805 28.1466 44.8735 28.5081 44.8735Z" fill="#F4A261"/>
<path d="M28.5081 51.4185C28.8696 51.4185 29.1626 51.1254 29.1626 50.7639C29.1626 50.4024 28.8696 50.1094 28.5081 50.1094C28.1466 50.1094 27.8535 50.4024 27.8535 50.7639C27.8535 51.1254 28.1466 51.4185 28.5081 51.4185Z" fill="#F4A261"/>
<path d="M55.3461 38.9824H39.637C39.277 38.9824 38.9824 39.277 38.9824 39.637V55.3461C38.9824 55.7061 39.277 56.0006 39.637 56.0006H55.3461C55.7061 56.0006 56.0006 55.7061 56.0006 55.3461V39.637C56.0006 39.277 55.7061 38.9824 55.3461 38.9824ZM50.5286 49.0428C50.7904 49.2981 50.7904 49.717 50.5286 49.9722C50.4042 50.0966 50.2341 50.1621 50.0704 50.1621C49.9002 50.1621 49.7366 50.0966 49.6057 49.9722L47.7533 48.1199L45.901 49.9722C45.7766 50.0966 45.6064 50.1621 45.4428 50.1621C45.2726 50.1621 45.1024 50.0966 44.9781 49.9722C44.7228 49.717 44.7228 49.2981 44.9781 49.0428L46.8304 47.197L44.9781 45.3446C44.7228 45.0893 44.7228 44.6704 44.9781 44.4151C45.2333 44.1599 45.6457 44.1599 45.901 44.4151L47.7533 46.2675L49.6057 44.4151C49.861 44.1599 50.2733 44.1599 50.5286 44.4151C50.7904 44.6704 50.7904 45.0893 50.5286 45.3446L48.6828 47.197L50.5286 49.0428Z" fill="#F4A261"/>
<defs>
<linearGradient id="paint0_linear_8110_5267" x1="16.9014" y1="-16.1392" x2="52.8507" y2="37.9522" gradientUnits="userSpaceOnUse">
<stop stop-color="#FFC592"/>
<stop offset="1" stop-color="#FFF9F3"/>
</linearGradient>
</defs>
</svg>
