<svg width="75" height="75" viewBox="0 0 75 75" fill="none" xmlns="http://www.w3.org/2000/svg">
<circle opacity="0.32" cx="37.5" cy="37.5" r="37.5" fill="url(#paint0_linear_8110_5270)"/>
<path fill-rule="evenodd" clip-rule="evenodd" d="M33.9581 20H39.9502V23.0146C41.9343 23.4111 43.779 24.1937 45.4042 25.2809L47.5313 23.1484L51.7683 27.3963L49.6413 29.5287C50.7256 31.1577 51.5059 33.0075 51.9017 34.9963H54.9083V41.0037H51.9017C51.8823 41.1008 51.862 41.1979 51.841 41.2943C51.3387 41.1967 50.8201 41.145 50.2897 41.145C49.3645 41.145 48.4759 41.3006 47.6476 41.5869C48.0586 40.4109 48.2829 39.1467 48.2829 37.8302C48.2829 31.5577 43.2108 26.4727 36.9543 26.4727C30.6978 26.4727 25.6258 31.5577 25.6258 37.8302C25.6258 44.1027 30.6978 49.1877 36.9543 49.1877C38.8912 49.1877 40.7145 48.7001 42.3087 47.841C42.2261 48.3056 42.1832 48.7841 42.1832 49.2721C42.1832 50.2872 42.3695 51.2585 42.7086 52.1542C41.8275 52.5144 40.9051 52.7947 39.9506 52.9858V56H33.9581V52.9858C31.974 52.5893 30.1292 51.8067 28.5041 50.7195L26.377 52.8516L22.1404 48.6041L24.267 46.472C23.1826 44.8431 22.402 42.9933 22.0066 41.0041H19V34.9963H22.0066C22.402 33.0071 23.1826 31.1577 24.267 29.5283L22.14 27.3959L26.377 23.148L28.5041 25.2805C30.1288 24.1933 31.974 23.4111 33.9581 23.0142V20ZM50.2897 42.545C46.5835 42.545 43.5793 45.5573 43.5793 49.2725C43.5793 52.9878 46.5835 56 50.2897 56C53.9958 56 57 52.9878 57 49.2725C57 45.5573 53.9958 42.545 50.2897 42.545ZM52.8305 46.2045L48.8555 50.1897L47.4991 48.4784C47.1656 48.0576 46.5545 47.9875 46.1348 48.3219C45.7151 48.6563 45.6452 49.2689 45.9788 49.6897L47.9752 52.2083C48.3202 52.7039 49.0314 52.772 49.4614 52.3405L54.2063 47.5835C54.5863 47.2025 54.5863 46.5851 54.2063 46.2041C53.8263 45.8236 53.2104 45.8236 52.8305 46.2045ZM36.9543 29.1179C32.1547 29.1179 28.2638 33.0187 28.2638 37.8306C28.2638 42.6426 32.1547 46.5433 36.9543 46.5433C41.754 46.5433 45.6448 42.6426 45.6448 37.8306C45.6448 33.0187 41.754 29.1179 36.9543 29.1179ZM37.6524 36.8525V31.5888C37.6524 31.2023 37.3399 30.889 36.9543 30.889C36.5688 30.889 36.2563 31.2023 36.2563 31.5888V37.5981L32.7026 39.655C32.3699 39.8481 32.2563 40.2752 32.4493 40.6088C32.6419 40.9424 33.0679 41.0562 33.4006 40.8628L36.3083 39.1797C36.4127 39.4341 36.6625 39.6136 36.9539 39.6136C37.3395 39.6136 37.652 39.3003 37.652 38.9138V38.4003L38.0899 38.1467C38.4227 37.9548 38.5374 37.5293 38.346 37.1953C38.2019 36.9437 37.9232 36.8163 37.6524 36.8525Z" fill="#39BA5E"/>
<defs>
<linearGradient id="paint0_linear_8110_5270" x1="16.9014" y1="-16.1392" x2="52.8507" y2="37.9522" gradientUnits="userSpaceOnUse">
<stop stop-color="#52C773"/>
<stop offset="1" stop-color="#EFF8FF"/>
</linearGradient>
</defs>
</svg>
