<svg width="75" height="75" viewBox="0 0 75 75" fill="none" xmlns="http://www.w3.org/2000/svg">
<circle cx="37.5" cy="37.5" r="37.5" fill="url(#paint0_linear_8110_5268)"/>
<path fill-rule="evenodd" clip-rule="evenodd" d="M55 26.976V22.3338C53.8647 22.0773 52.7535 21.7587 51.6698 21.3812C50.5231 20.9829 49.412 20.5209 48.3395 20C47.2687 20.5209 46.1575 20.9829 45.0109 21.3812C43.9272 21.7571 42.816 22.0757 41.6807 22.3338V26.976C41.6807 28.7714 42.3483 30.6703 43.6046 32.292C44.7319 33.7465 46.3301 34.9731 48.3397 35.6964C50.3491 34.9731 51.9473 33.7465 53.0747 32.292C54.331 30.6718 54.9986 28.7714 54.9986 26.976H55ZM50.8924 25.3129C51.5456 25.9581 51.9488 26.8486 51.9488 27.8331C51.9488 28.8176 51.5456 29.7082 50.8924 30.3533C50.2393 30.9985 49.3378 31.3968 48.3411 31.3968C47.3445 31.3968 46.443 30.9985 45.7898 30.3533C45.1367 29.7081 44.7335 28.8176 44.7335 27.8331C44.7335 26.8486 45.1367 25.9581 45.7898 25.3129C46.443 24.6677 47.3445 24.2694 48.3411 24.2694C49.3378 24.2694 50.2393 24.6677 50.8924 25.3129ZM48.3411 23.2547C49.6216 23.2547 50.7795 23.7676 51.6182 24.596C52.4568 25.4244 52.9761 26.5698 52.9761 27.8331C52.9761 29.098 52.4568 30.2418 51.6182 31.0702C50.7795 31.8986 49.62 32.4116 48.3411 32.4116C47.0606 32.4116 45.9027 31.8986 45.0641 31.0702C44.2255 30.2418 43.7062 29.0964 43.7062 27.8331C43.7062 26.5682 44.2255 25.4244 45.0641 24.596C45.9027 23.7676 47.0622 23.2547 48.3411 23.2547ZM49.6249 26.4185C49.8248 26.2209 50.1506 26.2209 50.3506 26.4185C50.5506 26.616 50.5506 26.9378 50.3506 27.1353L48.2121 29.2477C48.0121 29.4453 47.6864 29.4453 47.4864 29.2477L46.3317 28.1071C46.1317 27.9096 46.1317 27.5878 46.3317 27.3902C46.5317 27.1927 46.8574 27.1927 47.0574 27.3902L47.8493 28.1724L49.6249 26.4185ZM41.6564 40.4834L36.7988 40.4914V44.8278C37.289 44.9281 37.7261 45.1687 38.068 45.5048C38.526 45.9573 38.8098 46.5801 38.8098 47.2667C38.8098 47.9533 38.526 48.5762 38.068 49.0287C37.7261 49.3648 37.289 49.6054 36.7988 49.7057V54.1122H41.6564V54.1138C41.9273 54.1138 42.1547 54.3241 42.1676 54.5949C42.187 54.9868 42.3612 55.3389 42.6305 55.5938C42.8982 55.8455 43.2626 56 43.6642 56C44.0658 56 44.4287 55.8455 44.698 55.5938C44.9608 55.3468 45.1318 55.0059 45.1592 54.6268V54.6188C45.1592 54.3384 45.3882 54.1122 45.672 54.1122H50.5297V49.7616C50.0362 49.666 49.5927 49.427 49.2476 49.0893C48.7928 48.6449 48.5057 48.0299 48.4976 47.3481V47.286C48.5057 46.6042 48.7912 45.9893 49.2476 45.5448C49.5927 45.2087 50.0362 44.9697 50.5297 44.8726V40.4995L45.7191 40.4851C45.7046 40.4867 45.6901 40.4867 45.6756 40.4867C45.3917 40.4867 45.1627 40.2605 45.1627 39.9801C45.1627 39.5723 44.995 39.2027 44.7241 38.9351C44.4531 38.6674 44.079 38.5018 43.6661 38.5018C43.2533 38.5018 42.8791 38.6675 42.6082 38.9351C42.3372 39.2027 42.1695 39.5723 42.1695 39.9801H42.1679C42.1679 40.2589 41.9389 40.4851 41.6567 40.4851L41.6564 40.4834ZM26.4469 40.5025C26.5517 40.9837 26.7952 41.4122 27.1355 41.7467C27.5919 42.1944 28.2193 42.47 28.9111 42.47C29.603 42.47 30.2287 42.1928 30.6867 41.7467C31.027 41.4122 31.2722 40.9821 31.377 40.4994L35.7747 40.493V45.2816C35.7747 45.562 36.0037 45.7882 36.2875 45.7882C36.702 45.7882 37.0778 45.9539 37.3487 46.2215C37.618 46.4876 37.7857 46.8572 37.7857 47.2666C37.7857 47.676 37.6196 48.0456 37.3487 48.3116C37.0777 48.5793 36.7036 48.7449 36.2875 48.7449C36.0037 48.7449 35.7747 48.9712 35.7747 49.2515V54.112H31.3976C31.3138 53.6117 31.0767 53.1593 30.7348 52.8073C30.3026 52.3596 29.7027 52.0697 29.0302 52.0378C28.9705 52.0346 28.9286 52.033 28.9092 52.033C28.8882 52.033 28.8479 52.0346 28.7882 52.0378C28.1158 52.0697 27.5174 52.3596 27.0836 52.8073C26.7433 53.1609 26.5063 53.6134 26.4208 54.1135H22.0437V49.2992C22.0437 49.0188 21.8147 48.7926 21.5309 48.7926H21.5115H21.4938C21.0874 48.7926 20.7181 48.6301 20.4488 48.3688C20.1794 48.106 20.0085 47.7444 20.0005 47.3429C19.9988 47.2824 20.0021 47.3907 20.0021 47.3143C20.0021 47.2346 19.9988 47.3589 20.0005 47.2904C20.0069 46.8873 20.1779 46.5241 20.4472 46.2613C20.7165 46 21.0874 45.8375 21.497 45.8375C21.6003 45.8375 21.4535 45.8343 21.5245 45.8359C21.8067 45.8391 22.0389 45.6161 22.0421 45.3373V45.3309H22.0437V40.5039H26.4448L26.4469 40.5025ZM22.0459 39.4893H26.9035C27.1873 39.4893 27.4164 39.7156 27.4164 39.9959C27.4164 40.0071 27.4164 40.0182 27.4147 40.031C27.4276 40.4213 27.5954 40.7734 27.8582 41.0298C28.1275 41.2943 28.5001 41.4568 28.9113 41.4568C29.3226 41.4568 29.6951 41.2943 29.9644 41.0298C30.2354 40.7638 30.4047 40.3974 30.4079 39.9911C30.4095 39.714 30.6385 39.4909 30.9192 39.4909L35.7735 39.4829V35.1274C35.2832 35.0271 34.8462 34.7865 34.5043 34.4488C34.0479 33.9979 33.7657 33.375 33.7657 32.69C33.7657 32.0034 34.0479 31.3821 34.5043 30.9313C34.8446 30.5952 35.2832 30.353 35.7735 30.2526V25.9738H30.9175C30.6337 25.9738 30.4047 25.7476 30.4047 25.4672C30.4047 25.0593 30.2369 24.6898 29.966 24.4221C29.6951 24.1545 29.3209 23.9888 28.9081 23.9888C28.4952 23.9888 28.1211 24.1545 27.8501 24.4221C27.5792 24.6898 27.4115 25.0593 27.4115 25.4672C27.4115 25.7475 27.1825 25.9738 26.8986 25.9738H22.0427V30.3052C22.5281 30.4104 22.9587 30.6525 23.2941 30.9903C23.7424 31.4411 24.0198 32.0576 24.0198 32.7362C24.0198 33.4148 23.7424 34.033 23.2941 34.4822C22.9587 34.8183 22.5264 35.0605 22.0427 35.1672V39.4877L22.0459 39.4893Z" fill="#4036DF"/>
<defs>
<linearGradient id="paint0_linear_8110_5268" x1="-10.9896" y1="-43.75" x2="62.8166" y2="46.2039" gradientUnits="userSpaceOnUse">
<stop stop-color="#7972EA"/>
<stop offset="1" stop-color="white"/>
</linearGradient>
</defs>
</svg>
